<svg width="40" height="40" viewBox="0 0 40 40" fill="none" xmlns="http://www.w3.org/2000/svg">
<rect width="40" height="40" rx="20" fill="white"/>
<g clip-path="url(#clip0_2093_39736)">
<path d="M20.9398 20L26.4665 14.4733C26.5757 14.3458 26.6328 14.1817 26.6263 14.014C26.6198 13.8462 26.5503 13.687 26.4315 13.5683C26.3128 13.4496 26.1536 13.38 25.9859 13.3735C25.8181 13.367 25.654 13.4241 25.5265 13.5333L19.9998 19.06L14.4732 13.5267C14.3476 13.4011 14.1774 13.3306 13.9998 13.3306C13.8223 13.3306 13.652 13.4011 13.5265 13.5267C13.401 13.6522 13.3304 13.8225 13.3304 14C13.3304 14.1775 13.401 14.3478 13.5265 14.4733L19.0598 20L13.5265 25.5267C13.4567 25.5864 13.4 25.66 13.36 25.7427C13.32 25.8254 13.2975 25.9155 13.294 26.0073C13.2904 26.0991 13.3059 26.1907 13.3394 26.2762C13.3729 26.3618 13.4237 26.4395 13.4887 26.5044C13.5537 26.5694 13.6314 26.6202 13.7169 26.6538C13.8025 26.6873 13.894 26.7027 13.9859 26.6992C14.0777 26.6957 14.1678 26.6732 14.2505 26.6332C14.3332 26.5931 14.4067 26.5365 14.4665 26.4667L19.9998 20.94L25.5265 26.4667C25.654 26.5759 25.8181 26.633 25.9859 26.6265C26.1536 26.62 26.3128 26.5504 26.4315 26.4317C26.5503 26.313 26.6198 26.1538 26.6263 25.986C26.6328 25.8183 26.5757 25.6542 26.4665 25.5267L20.9398 20Z" fill="#868686"/>
</g>
<defs>
<clipPath id="clip0_2093_39736">
<rect width="24" height="24" fill="white" transform="translate(8 8)"/>
</clipPath>
</defs>
</svg>
