<svg width="32" height="32" viewBox="0 0 32 32" fill="none" xmlns="http://www.w3.org/2000/svg">
<g clip-path="url(#clip0_2097_6917)">
<path d="M17.2534 16L24.6223 8.63111C24.7679 8.46106 24.844 8.24233 24.8353 8.01862C24.8267 7.79491 24.734 7.58269 24.5757 7.42439C24.4173 7.26608 24.2051 7.17334 23.9814 7.1647C23.7577 7.15606 23.539 7.23215 23.3689 7.37778L16 14.7467L8.63116 7.36889C8.46377 7.20151 8.23676 7.10747 8.00004 7.10747C7.76333 7.10747 7.53631 7.20151 7.36893 7.36889C7.20155 7.53627 7.10752 7.76329 7.10752 8C7.10752 8.23671 7.20155 8.46373 7.36893 8.63111L14.7467 16L7.36893 23.3689C7.27588 23.4486 7.20031 23.5466 7.14695 23.6569C7.0936 23.7672 7.06362 23.8873 7.05889 24.0097C7.05416 24.1321 7.07479 24.2542 7.11948 24.3683C7.16417 24.4824 7.23195 24.586 7.31858 24.6726C7.4052 24.7592 7.5088 24.827 7.62287 24.8717C7.73693 24.9164 7.85901 24.937 7.98142 24.9323C8.10384 24.9275 8.22396 24.8976 8.33424 24.8442C8.44452 24.7908 8.54258 24.7153 8.62227 24.6222L16 17.2533L23.3689 24.6222C23.539 24.7678 23.7577 24.8439 23.9814 24.8353C24.2051 24.8267 24.4173 24.7339 24.5757 24.5756C24.734 24.4173 24.8267 24.2051 24.8353 23.9814C24.844 23.7577 24.7679 23.5389 24.6223 23.3689L17.2534 16Z" fill="#33CC66"/>
</g>
<defs>
<clipPath id="clip0_2097_6917">
<rect width="32" height="32" fill="white"/>
</clipPath>
</defs>
</svg>
