<svg width="40" height="40" viewBox="0 0 40 40" fill="none" xmlns="http://www.w3.org/2000/svg">
<symbol width="40" height="40" id="pdf">
    <path d="M13.7783 24.4667C13.4717 24.4667 13.265 24.4967 13.1583 24.5267V26.49C13.285 26.52 13.4433 26.5283 13.6617 26.5283C14.46 26.5283 14.9517 26.125 14.9517 25.4433C14.9517 24.8333 14.5283 24.4667 13.7783 24.4667ZM19.59 24.4867C19.2567 24.4867 19.04 24.5167 18.9117 24.5467V28.8967C19.04 28.9267 19.2467 28.9267 19.4333 28.9267C20.795 28.9367 21.6817 28.1867 21.6817 26.6C21.6917 25.2167 20.8833 24.4867 19.59 24.4867Z" fill="currentColor"/>
    <path d="M23.3333 3.33334H9.99996C9.1159 3.33334 8.26806 3.68453 7.64294 4.30965C7.01782 4.93478 6.66663 5.78262 6.66663 6.66668V33.3333C6.66663 34.2174 7.01782 35.0652 7.64294 35.6904C8.26806 36.3155 9.1159 36.6667 9.99996 36.6667H30C30.884 36.6667 31.7319 36.3155 32.357 35.6904C32.9821 35.0652 33.3333 34.2174 33.3333 33.3333V13.3333L23.3333 3.33334ZM15.83 26.9833C15.315 27.4667 14.555 27.6833 13.67 27.6833C13.4983 27.6866 13.3267 27.6765 13.1566 27.6533V30.03H11.6666V23.47C12.3391 23.37 13.0185 23.3243 13.6983 23.3333C14.6266 23.3333 15.2866 23.51 15.7316 23.865C16.155 24.2017 16.4416 24.7533 16.4416 25.4033C16.44 26.0567 16.2233 26.6083 15.83 26.9833ZM22.175 29.2417C21.475 29.8233 20.41 30.1 19.1083 30.1C18.3283 30.1 17.7766 30.05 17.4016 30V23.4717C18.0743 23.3738 18.7535 23.3276 19.4333 23.3333C20.695 23.3333 21.515 23.56 22.155 24.0433C22.8466 24.5567 23.28 25.375 23.28 26.55C23.28 27.8217 22.815 28.7 22.175 29.2417ZM28.3333 24.6167H25.78V26.135H28.1666V27.3583H25.78V30.0317H24.27V23.3833H28.3333V24.6167ZM23.3333 15H21.6666V6.66668L30 15H23.3333Z" fill="currentColor"/>
</symbol>
    <symbol width="24" height="24" id="search">
        <path d="M21.75 20.6895L16.086 15.0255C17.4471 13.3915 18.1258 11.2956 17.981 9.17392C17.8361 7.05222 16.8789 5.06804 15.3084 3.63413C13.7379 2.20023 11.675 1.427 9.54893 1.47531C7.42284 1.52362 5.39723 2.38974 3.89347 3.8935C2.38971 5.39726 1.52359 7.42288 1.47528 9.54896C1.42697 11.6751 2.2002 13.7379 3.6341 15.3084C5.06801 16.8789 7.05219 17.8362 9.17389 17.981C11.2956 18.1258 13.3914 17.4471 15.0255 16.086L20.6895 21.75L21.75 20.6895ZM2.99996 9.75C2.99996 8.41497 3.39585 7.10993 4.13754 5.9999C4.87924 4.88986 5.93345 4.0247 7.16685 3.51381C8.40025 3.00292 9.75745 2.86924 11.0668 3.12969C12.3762 3.39014 13.5789 4.03302 14.5229 4.97702C15.4669 5.92103 16.1098 7.12376 16.3703 8.43314C16.6307 9.74251 16.497 11.0997 15.9862 12.3331C15.4753 13.5665 14.6101 14.6207 13.5001 15.3624C12.39 16.1041 11.085 16.5 9.74996 16.5C7.96036 16.498 6.24463 15.7862 4.97919 14.5208C3.71375 13.2553 3.00195 11.5396 2.99996 9.75Z" fill="currentColor"/>

    </symbol>
    <symbol width="24" height="24" id="close">
            <g clip-path="url(#clip0_2093_39737)">
                <path d="M12.9398 12L18.4665 6.47333C18.5757 6.3458 18.6328 6.18175 18.6263 6.01396C18.6198 5.84618 18.5503 5.68702 18.4315 5.56829C18.3128 5.44956 18.1536 5.38001 17.9859 5.37353C17.8181 5.36704 17.654 5.42412 17.5265 5.53333L11.9998 11.06L6.47315 5.52667C6.34762 5.40113 6.17735 5.33061 5.99982 5.33061C5.82228 5.33061 5.65202 5.40113 5.52649 5.52667C5.40095 5.6522 5.33042 5.82247 5.33042 6C5.33042 6.17753 5.40095 6.3478 5.52649 6.47333L11.0598 12L5.52649 17.5267C5.4567 17.5864 5.40002 17.66 5.36 17.7427C5.31999 17.8254 5.2975 17.9155 5.29395 18.0073C5.29041 18.0991 5.30588 18.1907 5.33939 18.2762C5.37291 18.3618 5.42375 18.4395 5.48872 18.5044C5.55369 18.5694 5.63139 18.6202 5.71694 18.6538C5.80249 18.6873 5.89404 18.7027 5.98585 18.6992C6.07767 18.6957 6.16776 18.6732 6.25047 18.6332C6.33318 18.5931 6.40672 18.5365 6.46649 18.4667L11.9998 12.94L17.5265 18.4667C17.654 18.5759 17.8181 18.633 17.9859 18.6265C18.1536 18.62 18.3128 18.5504 18.4315 18.4317C18.5503 18.313 18.6198 18.1538 18.6263 17.986C18.6328 17.8183 18.5757 17.6542 18.4665 17.5267L12.9398 12Z" fill="currentColor"/>
            </g>
            <defs>
                <clipPath id="clip0_2093_39737">
                    <rect width="24" height="24" fill="white"/>
                </clipPath>
            </defs>


    </symbol>


</svg>
